<svg xmlns="http://www.w3.org/2000/svg" viewBox="43.17857 25.75021 650 603.4996" width="650" height="603.5"><defs><clipPath id="a"><path d="M125.357 222.28h118v87h-118z"/></clipPath><clipPath id="b"><path d="M494 218.28h118v87H494z"/></clipPath><clipPath id="c"><path d="M125.357 431.637h118v87h-118z"/></clipPath><marker orient="auto" overflow="visible" id="d" stroke-miterlimit="10" viewBox="-1 -5 10 10" markerWidth="10" markerHeight="10" color="#38a970"><path d="M8 0H0m4-4l4 4-4 4" fill="none" stroke="currentColor"/></marker><marker orient="auto" overflow="visible" id="e" stroke-miterlimit="10" viewBox="-9 -5 10 10" markerWidth="10" markerHeight="10" color="#38a970"><path d="M-8 0h8m-4 4l-4-4 4-4" fill="none" stroke="currentColor"/></marker><marker orient="auto" overflow="visible" id="f" stroke-miterlimit="10" viewBox="-1 -5 10 10" markerWidth="10" markerHeight="10" color="#616161"><path d="M8 0H0m4-4l4 4-4 4" fill="none" stroke="currentColor"/></marker><clipPath id="g"><path d="M494 371h118v87H494z"/></clipPath></defs><g fill="none"><title>Canvas 1</title><path fill="#fff" d="M43.179 25.75h650v603.5h-650z"/><title>Layer 1</title><title>GCP Zone</title><path fill="#eaedef" d="M43.179 25.75h650v603.5h-650z"/><title>Page-1</title><title>Shape</title><path d="M71.986 56.78l-2.148 3.733h-5.625A1.4 1.4 0 0 1 63 59.809l-4.55-7.933a1.401 1.401 0 0 1 0-1.392l1.731-3.018 2.137 3.714 3.222 5.6z" fill="#fbbc05"/><title>Shape</title><path d="M79.078 51.876l-4.55 7.934a1.4 1.4 0 0 1-1.215.704h-3.476l2.148-3.733 3.224-5.601-3.224-5.6h4.279l2.812 4.904c.25.43.25.961.002 1.392z" fill="#ea4335"/><title>Shape</title><path d="M76.265 45.58H65.54l-3.222 5.6-2.137-3.715L63 42.55a1.4 1.4 0 0 1 1.214-.704h9.101c.502 0 .965.269 1.215.704z" fill="#4285f4"/><title>Shape</title><title>Oval</title><circle cx="68.763" cy="51.18" r="2.801" fill="#fff"/><title>GCP logo</title><title>Fill-3</title><path d="M137.861 51.485c0-3.23 2.442-5.672 5.641-5.672 1.638 0 3.018.652 3.989 1.774l-.97.94c-.759-.94-1.775-1.38-3.019-1.38-2.29 0-4.215 1.669-4.215 4.338s1.926 4.336 4.215 4.336c1.365 0 2.518-.636 3.337-1.577l.97.971c-.955 1.137-2.487 1.941-4.307 1.941-3.2 0-5.64-2.441-5.64-5.671" fill="#757575"/><title>Fill-5</title><path fill="#757575" d="M148.9 46.056h1.395v10.858H148.9z"/><title>Fill-7</title><path d="M157.59 53.198c0-1.698-1.184-2.684-2.427-2.684-1.244 0-2.426.986-2.426 2.684 0 1.699 1.182 2.684 2.426 2.684 1.243 0 2.426-.985 2.426-2.684m1.395 0c0 2.26-1.592 3.958-3.821 3.958-2.23 0-3.822-1.698-3.822-3.958 0-2.259 1.593-3.957 3.822-3.957s3.821 1.698 3.821 3.957" fill="#757575"/><title>Fill-8</title><path d="M165.292 56.913v-1.03h-.06c-.41.682-1.335 1.273-2.35 1.273-1.912 0-2.837-1.289-2.837-3.124v-4.549h1.395v4.322c0 1.547.774 2.077 1.835 2.077 1.213 0 1.957-1.167 1.957-2.304v-4.095h1.394v7.43z" fill="#757575"/><title>Fill-9</title><path d="M173.875 53.198c0-1.698-1.123-2.684-2.366-2.684s-2.366 1.016-2.366 2.684c0 1.669 1.123 2.684 2.366 2.684s2.366-.985 2.366-2.684m-6.127 0c0-2.274 1.653-3.957 3.533-3.957 1.183 0 2.109.59 2.533 1.273h.06l-.06-1.03v-3.428h1.395v10.857h-1.334v-1.03h-.061c-.424.681-1.35 1.273-2.533 1.273-1.88 0-3.533-1.683-3.533-3.958" fill="#757575"/><title>Fill-10</title><path d="M182.745 51.181c1.243 0 1.94-1.03 1.94-1.895 0-.864-.697-1.895-1.94-1.895h-2.335v3.79zm-3.73 5.732V46.056h3.7c1.804 0 3.396 1.335 3.396 3.23s-1.592 3.23-3.397 3.23h-2.304v4.397z" fill="#757575"/><title>Fill-11</title><path fill="#757575" d="M187.096 46.056h1.395v10.858h-1.395z"/><title>Fill-12</title><path d="M194.966 53.714s-.591-.485-1.774-.485c-1.471 0-2.047.788-2.047 1.47 0 .79.819 1.184 1.547 1.184 1.106 0 2.274-.956 2.274-2.17m-5.277.956c0-1.683 1.517-2.593 3.26-2.593 1.001 0 1.729.288 2.017.455v-.212c0-1.123-.895-1.805-1.941-1.805-.773 0-1.516.38-1.774 1.077l-1.274-.546c.258-.683 1.153-1.805 3.018-1.805 1.82 0 3.306 1.092 3.306 3.185v4.489h-1.335v-1.032h-.06c-.41.622-1.168 1.274-2.442 1.274-1.517 0-2.775-.94-2.775-2.487" fill="#757575"/><title>Fill-13</title><path d="M198.317 54.654v-3.897h-1.304v-1.274h1.304v-2.274h1.395v2.274h1.82v1.274h-1.82v3.791c0 .834.35 1.213 1.001 1.213.258 0 .44-.03.637-.122l.486 1.198c-.32.137-.652.198-1.123.198-1.562 0-2.396-.864-2.396-2.381" fill="#757575"/><title>Fill-14</title><path d="M207.385 46.192l-.485 1.198c-.183-.09-.38-.121-.637-.121-.698 0-1.243.41-1.243 1.274v.94h1.94v1.274h-1.94v6.156h-1.396v-6.156h-1.395v-1.274h1.395v-.986c0-1.516 1.077-2.502 2.639-2.502.47 0 .803.061 1.122.197" fill="#757575"/><title>Fill-15</title><path d="M213.587 53.198c0-1.698-1.183-2.684-2.427-2.684-1.243 0-2.426.986-2.426 2.684 0 1.699 1.183 2.684 2.426 2.684 1.244 0 2.427-.985 2.427-2.684m1.395 0c0 2.26-1.593 3.958-3.822 3.958s-3.821-1.698-3.821-3.958c0-2.259 1.592-3.957 3.821-3.957 2.23 0 3.822 1.698 3.822 3.957" fill="#757575"/><title>Fill-16</title><path d="M216.104 56.913v-7.43h1.334v1.213h.06c.304-.849 1.38-1.395 2.154-1.395.455 0 .758.06 1.047.182l-.531 1.304c-.197-.076-.44-.106-.743-.106-.956 0-1.926.804-1.926 2.169v4.063z" fill="#757575"/><title>Fill-17</title><path d="M221.456 49.483h1.334v1.031h.06c.426-.712 1.412-1.274 2.291-1.274 1.198 0 1.971.546 2.35 1.426a3.023 3.023 0 0 1 2.594-1.426c1.82 0 2.653 1.29 2.653 3.124v4.55h-1.395v-4.337c0-1.547-.591-2.063-1.653-2.063-1.137 0-1.895 1.153-1.895 2.29v4.11h-1.396v-4.337c0-1.547-.59-2.063-1.652-2.063-1.138 0-1.896 1.153-1.896 2.29v4.11h-1.395z" fill="#757575"/><title>Fill-18</title><path d="M85.274 50.939c0-3.427 2.881-6.217 6.308-6.217 1.896 0 3.245.742 4.261 1.713l-1.197 1.198c-.729-.682-1.714-1.213-3.064-1.213-2.502 0-4.458 2.017-4.458 4.519 0 2.502 1.956 4.519 4.458 4.519 1.623 0 2.548-.652 3.139-1.244.485-.485.804-1.182.925-2.138h-4.064v-1.698H97.3c.06.303.091.667.091 1.061 0 1.274-.349 2.851-1.471 3.973-1.092 1.137-2.487 1.744-4.337 1.744-3.427 0-6.308-2.79-6.308-6.217" fill="#757575"/><title>Fill-19</title><path d="M102.01 55.579c-1.213 0-2.26-1-2.26-2.426.001-1.441 1.047-2.427 2.26-2.427 1.213 0 2.26.986 2.26 2.427 0 1.425-1.047 2.426-2.26 2.426m0-6.43c-2.214 0-4.019 1.683-4.019 4.004 0 2.305 1.805 4.003 4.02 4.003 2.213 0 4.017-1.698 4.017-4.003 0-2.32-1.804-4.004-4.018-4.004" fill="#757575"/><title>Fill-20</title><path d="M110.777 55.579c-1.213 0-2.26-1-2.26-2.426 0-1.441 1.047-2.427 2.26-2.427 1.212 0 2.259.986 2.259 2.427 0 1.425-1.047 2.426-2.26 2.426m0-6.43c-2.214 0-4.018 1.683-4.018 4.004 0 2.305 1.804 4.003 4.019 4.003 2.213 0 4.018-1.698 4.018-4.003 0-2.32-1.805-4.004-4.018-4.004" fill="#757575"/><title>Fill-21</title><path d="M119.52 55.579c-1.213 0-2.23-1.016-2.23-2.41 0-1.412 1.017-2.443 2.23-2.443 1.198 0 2.138 1.031 2.138 2.442 0 1.395-.94 2.411-2.138 2.411zm2.017-6.187v.652h-.061c-.394-.47-1.152-.895-2.108-.895-2.001 0-3.836 1.76-3.836 4.02 0 2.243 1.835 3.987 3.836 3.987.956 0 1.714-.425 2.108-.91h.061v.577c0 1.531-.819 2.35-2.138 2.35-1.077 0-1.745-.773-2.017-1.425l-1.532.636c.44 1.062 1.608 2.366 3.549 2.366 2.062 0 3.806-1.213 3.806-4.17v-7.188z" fill="#757575"/><title>Fill-22</title><path fill="#757575" d="M124.418 45.146h1.759v11.767h-1.759z"/><title>Fill-23</title><path d="M130.863 50.696c.697 0 1.289.349 1.486.85l-3.579 1.485c-.045-1.547 1.198-2.335 2.093-2.335M131 55.58c-.895 0-1.533-.41-1.942-1.213l5.353-2.214-.182-.455c-.334-.895-1.35-2.548-3.427-2.548-2.062 0-3.776 1.623-3.776 4.004 0 2.244 1.699 4.003 3.974 4.003 1.834 0 2.895-1.122 3.335-1.774l-1.365-.91c-.454.668-1.076 1.107-1.97 1.107" fill="#757575"/><title>zone external - grey</title><path d="M436 73.423h234v537H436z" stroke="#616161" stroke-linecap="round" stroke-linejoin="round" stroke-dasharray="1.0,3.0"/><text transform="translate(446 88.423)" fill="#757575"><tspan font-family="Roboto" font-size="10" font-weight="400" x="0" y="9">Service producer project for customer</tspan></text><title>zone external - grey</title><path d="M66 73.423h234v537H66z" stroke="#616161" stroke-linecap="round" stroke-linejoin="round" stroke-dasharray="1.0,3.0"/><text transform="translate(76 88.423)" fill="#757575"><tspan font-family="Roboto" font-size="10" font-weight="400" x="0" y="9">Customer project</tspan></text><title>Virtual Private Cloud</title><title>zone internal - blue</title><path fill="#e1f6fe" d="M80 114.28h206v481H80z"/><path stroke="#fff" stroke-linecap="round" stroke-linejoin="round" stroke-width="2" d="M80 114.28h206v481H80z"/><text transform="translate(128 135.28)" fill="#757575"><tspan font-family="Roboto" font-size="10" font-weight="400" x="0" y="9">Customer VPC network</tspan></text><title>Fill-1</title><path d="M120.866 139.572l-5.754-10.006c-.461-.8-1.297-1.286-2.158-1.286h-11.508c-.922 0-1.727.54-2.158 1.285l-5.754 9.986a2.51 2.51 0 0 0 0 2.502l5.754 10.052c.46.798 1.297 1.331 2.158 1.331h11.508c.922 0 1.727-.581 2.158-1.326l5.754-10.006a2.566 2.566 0 0 0 0-2.532" fill="#4285f4"/><title>Fill-4</title><path d="M112.37 135.674l-4.573 2.199-2.187-2.188-3.574 3.59 2.38 2.38-2.384 4.37 7.41 7.411h3.512c.922 0 1.727-.581 2.158-1.326l5-8.695z" fill="#000" fill-opacity=".07"/><title>Fill-7</title><path fill="#fff" d="M103.481 138.78h1.094v4.266h-1.094z"/><title>Fill-9</title><path fill="#fff" d="M109.825 138.26h1.094v4.774h-1.094z"/><title>Fill-10</title><path fill="#fff" d="M105.095 137.139h4.211v1.094h-4.211z"/><title>Fill-11</title><path fill="#fff" d="M105.095 143.483h4.211v1.094h-4.211z"/><title>Fill-12</title><path d="M102.169 135.608h3.281a.22.22 0 0 1 .219.219v3.281a.22.22 0 0 1-.219.219h-3.281a.219.219 0 0 1-.219-.219v-3.281c0-.121.098-.219.219-.219" fill="#fff"/><g><title>Fill-13</title><path d="M108.95 135.608h3.281a.22.22 0 0 1 .22.219v3.281a.22.22 0 0 1-.22.219h-3.28a.219.219 0 0 1-.22-.219v-3.281a.22.22 0 0 1 .22-.219" fill="#fff"/></g><g><title>Fill-14</title><path d="M102.169 142.39h3.281c.12 0 .219.097.219.218v3.281a.219.219 0 0 1-.219.219h-3.281a.219.219 0 0 1-.219-.219v-3.281a.22.22 0 0 1 .219-.219" fill="#fff"/></g><g><title>Fill-15</title><path d="M108.95 142.39h3.281c.121 0 .22.097.22.218v3.281a.22.22 0 0 1-.22.219h-3.28a.219.219 0 0 1-.22-.219v-3.281a.22.22 0 0 1 .22-.219" fill="#fff"/></g><g><title>Virtual Private Cloud</title><title>zone internal - blue</title><path fill="#e1f6fe" d="M450 114.28h206v481H450z"/><path stroke="#fff" stroke-linecap="round" stroke-linejoin="round" stroke-width="2" d="M450 114.28h206v481H450z"/><text transform="translate(498 130.28)" fill="#757575"><tspan font-family="Roboto" font-size="10" font-weight="400" x="0" y="9">Service producer VPC </tspan> <tspan font-family="Roboto" font-size="10" font-weight="400" x="0" y="20">network</tspan></text><title>Fill-1</title><path d="M490.866 139.572l-5.754-10.006c-.461-.8-1.297-1.286-2.158-1.286h-11.508c-.922 0-1.727.54-2.158 1.285l-5.754 9.986a2.51 2.51 0 0 0 0 2.502l5.754 10.052c.46.798 1.297 1.331 2.158 1.331h11.508c.922 0 1.727-.581 2.158-1.326l5.754-10.006a2.566 2.566 0 0 0 0-2.532" fill="#4285f4"/><title>Fill-4</title><path d="M482.37 135.674l-4.573 2.199-2.188-2.188-3.573 3.59 2.38 2.38-2.384 4.37 7.41 7.411h3.512c.922 0 1.727-.581 2.158-1.326l5-8.695z" fill="#000" fill-opacity=".07"/><title>Fill-7</title><path fill="#fff" d="M473.481 138.78h1.094v4.266h-1.094z"/><title>Fill-9</title><path fill="#fff" d="M479.825 138.26h1.094v4.774h-1.094z"/><title>Fill-10</title><path fill="#fff" d="M475.095 137.139h4.211v1.094h-4.211z"/><title>Fill-11</title><path fill="#fff" d="M475.095 143.483h4.211v1.094h-4.211z"/><title>Fill-12</title><path d="M472.169 135.608h3.281a.22.22 0 0 1 .219.219v3.281a.22.22 0 0 1-.219.219h-3.281a.219.219 0 0 1-.219-.219v-3.281c0-.121.098-.219.219-.219" fill="#fff"/><g><title>Fill-13</title><path d="M478.95 135.608h3.281a.22.22 0 0 1 .22.219v3.281a.22.22 0 0 1-.22.219h-3.28a.219.219 0 0 1-.22-.219v-3.281a.22.22 0 0 1 .22-.219" fill="#fff"/></g><g><title>Fill-14</title><path d="M472.169 142.39h3.281c.12 0 .219.097.219.218v3.281a.219.219 0 0 1-.219.219h-3.281a.219.219 0 0 1-.219-.219v-3.281a.22.22 0 0 1 .219-.219" fill="#fff"/></g><g><title>Fill-15</title><path d="M478.95 142.39h3.281c.121 0 .22.097.22.218v3.281a.22.22 0 0 1-.22.219h-3.28a.219.219 0 0 1-.22-.219v-3.281a.22.22 0 0 1 .22-.219" fill="#fff"/></g></g><g><title>zone internal - green</title><path fill="#e2f3ec" d="M97.357 171.28h172v197h-172z"/><path stroke="#fff" stroke-linecap="round" stroke-linejoin="round" stroke-width="2" d="M97.357 171.28h172v197h-172z"/><text transform="translate(107.357 186.28)" fill="#757575"><tspan font-family="Roboto" font-size="10" font-weight="400" x="0" y="9">Region: us-central1</tspan></text></g><g><title>zone internal - green</title><path fill="#e2f3ec" d="M467 171.28h172V575H467z"/><path stroke="#fff" stroke-linecap="round" stroke-linejoin="round" stroke-width="2" d="M467 171.28h172V575H467z"/><text transform="translate(477 186.28)" fill="#757575"><tspan font-family="Roboto" font-size="10" font-weight="400" x="0" y="9">Region: us-central1</tspan></text></g><g><title>zone internal - purple</title><path fill="#ede7f7" d="M481 205.28h144V556H481z"/><path stroke="#fff" stroke-linecap="round" stroke-linejoin="round" stroke-width="2" d="M481 205.28h144V556H481z"/><text transform="translate(491 519.5)" fill="#757575"><tspan font-family="Roboto" font-size="10" font-weight="400" x="0" y="9">subnet for Cloud SQL:</tspan> <tspan font-family="Roboto" font-size="10" font-weight="400" x="0" y="20">10.240.0.0/24</tspan></text></g><g><title>zone internal - purple</title><path fill="#ede7f7" d="M112.357 205.28h144v146h-144z"/><path stroke="#fff" stroke-linecap="round" stroke-linejoin="round" stroke-width="2" d="M112.357 205.28h144v146h-144z"/><text transform="translate(122.357 325.78)" fill="#757575"><tspan font-family="Roboto" font-size="10" font-weight="400" x="0" y="9">subnet: 10.1.0.0/24</tspan></text></g><g><title>Combo Card 1</title><path fill="#fff" d="M125.357 222.28h118v87h-118z"/><path stroke="#dfdfdf" stroke-linecap="round" stroke-linejoin="round" stroke-width="2" clip-path="url(#a)" d="M125.357 222.28h118v87h-118z"/><path fill="#dfdfdf" d="M141.357 276.28h86v1h-86z"/><text transform="translate(142.107 285.28)" fill="#757575"><tspan font-family="Roboto" font-size="10" font-weight="400" x="25.264" y="9">10.1.0.2</tspan></text><text transform="translate(178.357 243.28)" fill="#212121"><tspan font-family="Roboto" font-size="12" font-weight="400" x="0" y="11">VM1</tspan></text><title>Compute Engine</title><title>Fill-1</title><path d="M169.023 248.994l-5.754-10.007c-.461-.798-1.297-1.285-2.157-1.285h-11.509c-.922 0-1.727.54-2.158 1.285l-5.754 9.986a2.51 2.51 0 0 0 0 2.502l5.754 10.051c.461.8 1.297 1.332 2.158 1.332h11.508c.922 0 1.727-.581 2.158-1.326l5.754-10.006a2.566 2.566 0 0 0 0-2.532" fill="#4285f4"/><title>Fill-4</title><path d="M167.372 254.397l-9.47-9.47-.679 1.47-1.476-1.477-.684 1.463-1.46-1.46-.358 1.77-1.299.224-.27 1.155-1.68.401 1.506 1.506-1.49.663 1.49 1.49-1.5.64 10.086 10.086h1.023c.922 0 1.727-.581 2.158-1.326z" fill="#000" fill-opacity=".07"/><title>Fill-7</title><path d="M156.633 248.77h-2.496a.266.266 0 0 0-.266.265v2.495c.001.147.12.265.266.266h2.495c.147 0 .265-.12.266-.266v-2.495a.266.266 0 0 0-.265-.266" fill="#fff"/><g><title>Fill-9</title><path d="M158.473 253.37h-6.177v-6.176h6.177zm2.11-4.802a.24.24 0 0 0 .238-.238v-.389a.24.24 0 0 0-.238-.238h-1.214v-1.135a.267.267 0 0 0-.265-.265h-1.14v-1.219a.24.24 0 0 0-.238-.238h-.389a.24.24 0 0 0-.238.238v1.219h-1.281v-1.219a.24.24 0 0 0-.239-.238h-.389a.24.24 0 0 0-.238.238v1.219h-1.282v-1.219a.24.24 0 0 0-.238-.238h-.389a.24.24 0 0 0-.238.238v1.219h-1.139a.266.266 0 0 0-.266.265v1.135h-1.213a.24.24 0 0 0-.239.238v.39a.24.24 0 0 0 .239.237h1.213v1.282h-1.213a.24.24 0 0 0-.238.238v.389c0 .131.106.238.238.238h1.214v1.282h-1.214a.24.24 0 0 0-.238.238v.389c0 .131.106.238.238.238h1.214v1.135c0 .147.119.265.265.266h1.14v1.218a.24.24 0 0 0 .238.238h.388a.239.239 0 0 0 .238-.238v-1.218h1.282v1.218c0 .131.107.238.239.238h.388a.239.239 0 0 0 .238-.238v-1.218h1.282v1.218a.24.24 0 0 0 .239.238h.388a.24.24 0 0 0 .238-.238v-1.218h1.14a.267.267 0 0 0 .265-.266v-1.135h1.214a.239.239 0 0 0 .238-.238v-.389a.239.239 0 0 0-.238-.238h-1.214v-1.282h1.214a.239.239 0 0 0 .238-.238v-.388a.24.24 0 0 0-.238-.239h-1.214v-1.282z" fill="#fff"/></g></g><g><title>Combo Card 1</title><path fill="#fff" d="M494 218.28h118v87H494z"/><path stroke="#dfdfdf" stroke-linecap="round" stroke-linejoin="round" stroke-width="2" clip-path="url(#b)" d="M494 218.28h118v87H494z"/><path fill="#dfdfdf" d="M510 272.28h86v1h-86z"/><text transform="translate(510.75 281.28)" fill="#757575"><tspan font-family="Roboto" font-size="10" font-weight="400" x="19.649" y="9">10.240.0.2</tspan></text><text transform="translate(547 239.28)" fill="#212121"><tspan font-family="Roboto" font-size="12" font-weight="400" x="0" y="11">DB1</tspan></text><title>Cloud SQL</title><title>Fill-1</title><path d="M537.633 244.972l-5.755-10.006c-.46-.8-1.297-1.286-2.157-1.286h-11.508c-.923 0-1.728.54-2.158 1.285l-5.754 9.986a2.51 2.51 0 0 0-.001 2.502l5.754 10.052c.461.798 1.298 1.331 2.158 1.331h11.508c.922 0 1.727-.581 2.158-1.326l5.754-10.006a2.566 2.566 0 0 0 0-2.532" fill="#4285f4"/><title>Fill-4</title><path d="M528.332 242.293l-4.22-1.45-4.475 3.382 2.798 2.799-2.807.273 2.62 2.62-2.652.333 8.586 8.586h1.538c.922 0 1.727-.581 2.158-1.326l4.261-7.41z" fill="#000" fill-opacity=".07"/><title>Fill-7</title><path d="M526.58 243.22l-.002-.001-2.612 1.507-2.611-1.507h-.002v-.002l.002.001 2.611-1.507 2.612 1.507h.002zm-2.614-3.474l-4.375 2.526v1.953l4.375 2.526 4.375-2.526v-1.953z" fill="#fff"/><title>Fill-9</title><path d="M519.591 245.329v1.953l4.375 2.526 4.375-2.526v-1.953l-4.375 2.526z" fill="#fff"/><g><title>Fill-11</title><path d="M519.591 248.29v1.954l4.375 2.526 4.375-2.526v-1.953l-4.375 2.526z" fill="#fff"/></g></g><g><title>Combo Card 1</title><path fill="#fff" d="M125.357 431.637h118v87h-118z"/><path stroke="#dfdfdf" stroke-linecap="round" stroke-linejoin="round" stroke-width="2" clip-path="url(#c)" d="M125.357 431.637h118v87h-118z"/><path fill="#dfdfdf" d="M141.357 485.637h86v1h-86z"/><text transform="translate(142.107 494.637)" fill="#757575"><tspan font-family="Roboto" font-size="10" font-weight="400" x="11.973" y="9">10.240.0.0/16</tspan></text><text transform="translate(141.357 452.637)" fill="#212121"><tspan font-family="Roboto" font-size="12" font-weight="400" x="1.281" y="11">Allocated range</tspan></text></g><g><text transform="translate(310.179 151)" fill="#757575"><tspan font-family="Roboto" font-size="10" font-weight="400" x="0" y="9">VPC Network Peering</tspan></text></g><g><text transform="translate(310.179 89.121)" fill="#757575"><tspan font-family="Roboto" font-size="10" font-weight="400" x="0" y="9">Private connection</tspan> <tspan font-family="Roboto" font-size="10" font-weight="400" x="0" y="21">(Assigned: 10.240.0.0/16)</tspan></text></g><g><title>path double arrow - grey primary</title><path marker-end="url(#d)" marker-start="url(#e)" stroke="#38a970" stroke-linecap="round" stroke-linejoin="round" d="M253.257 266.298H484.1"/></g><g><title>path arrow - grey primary</title><path d="M390.128 266.298v145.229h93.193" marker-end="url(#d)" stroke="#38a970" stroke-linecap="round" stroke-linejoin="round"/></g><g><text transform="translate(310.179 277.28)" fill="#38a970"><tspan font-family="Roboto" font-size="10" font-weight="400" x="0" y="9">Private services </tspan> <tspan font-family="Roboto" font-size="10" font-weight="400" x="0" y="21">access traffic</tspan></text></g><g><path d="M296.9 171.78h142.2a.5.5 0 0 0 0-1H296.9a.5.5 0 0 0 0 1zm150.2-1h-8v1h8zm-4.354-3.147l4 4v-.707l-4 4 .708.707 4-4 .353-.353-.353-.354-4-4zM288.9 171.78h8v-1h-8zm4.354 3.146l-4-4v.707l4-4-.708-.707-4 4-.353.354.353.353 4 4z" fill="#616161"/></g><g><title>path</title><path marker-end="url(#f)" stroke="#616161" stroke-linecap="round" stroke-linejoin="round" stroke-dasharray="4.0,4.0" d="M367.5 117.137v22.806"/></g><g><title>Combo Card 1</title><path fill="#fff" d="M494 371h118v87H494z"/><path stroke="#dfdfdf" stroke-linecap="round" stroke-linejoin="round" stroke-width="2" clip-path="url(#g)" d="M494 371h118v87H494z"/><path fill="#dfdfdf" d="M510 425h86v1h-86z"/><text transform="translate(510.75 434)" fill="#757575"><tspan font-family="Roboto" font-size="10" font-weight="400" x="19.649" y="9">10.240.0.3</tspan></text><text transform="translate(547 392)" fill="#212121"><tspan font-family="Roboto" font-size="12" font-weight="400" x="0" y="11">DB2</tspan></text><title>Cloud SQL</title><title>Fill-1</title><path d="M537.633 397.692l-5.755-10.006c-.46-.8-1.297-1.286-2.157-1.286h-11.508c-.923 0-1.728.54-2.158 1.285l-5.754 9.986a2.51 2.51 0 0 0-.001 2.502l5.754 10.052c.461.798 1.298 1.331 2.158 1.331h11.508c.922 0 1.727-.58 2.158-1.326l5.754-10.006a2.566 2.566 0 0 0 0-2.532" fill="#4285f4"/><title>Fill-4</title><path d="M528.332 395.013l-4.22-1.449-4.475 3.381 2.798 2.799-2.807.273 2.62 2.62-2.652.333 8.586 8.586h1.538c.922 0 1.727-.58 2.158-1.326l4.261-7.41z" fill="#000" fill-opacity=".07"/><title>Fill-7</title><path d="M526.58 395.94l-.002-.001-2.612 1.507-2.611-1.507h-.002v-.001h.002l2.611-1.507 2.612 1.508.002-.001zm-2.614-3.474l-4.375 2.526v1.953l4.375 2.526 4.375-2.526v-1.953z" fill="#fff"/><title>Fill-9</title><path d="M519.591 398.049v1.953l4.375 2.526 4.375-2.526v-1.953l-4.375 2.526z" fill="#fff"/><g><title>Fill-11</title><path d="M519.591 401.01v1.954l4.375 2.526 4.375-2.526v-1.953l-4.375 2.526z" fill="#fff"/></g></g></g></svg>